<svg width="14" height="13" viewBox="0 0 14 13" fill="none" xmlns="http://www.w3.org/2000/svg">
<path fill-rule="evenodd" clip-rule="evenodd" d="M13.7326 6.19667L12.3765 3.99905C12.0327 3.44191 11.4088 3.09524 10.7403 3.09524H9.5498V1.85714C9.5498 0.829524 8.69668 0 7.63984 0H0.636653C0.286494 0 0 0.278571 0 0.619048C0 0.959524 0.286494 1.2381 0.636653 1.2381H3.81992C4.17008 1.2381 4.45657 1.51667 4.45657 1.85714C4.45657 2.19762 4.17008 2.47619 3.81992 2.47619H0.636653C0.286494 2.47619 0 2.75476 0 3.09524C0 3.43571 0.286494 3.71429 0.636653 3.71429H4.45657C4.80673 3.71429 5.09322 3.99286 5.09322 4.33333C5.09322 4.67381 4.80673 4.95238 4.45657 4.95238H1.27331C0.923147 4.95238 0.636653 5.23095 0.636653 5.57143C0.636653 5.9119 0.923147 6.19048 1.27331 6.19048H7.63984C7.99 6.19048 8.27649 6.46905 8.27649 6.80952V9.28572C8.27649 9.62619 7.99 9.90476 7.63984 9.90476H5.51341C5.15689 9.17429 4.38654 8.66667 3.50159 8.66667C2.61664 8.66667 1.84629 9.17429 1.48977 9.90476H0.636653C0.286494 9.90476 0 10.1833 0 10.5238C0 10.8643 0.286494 11.1429 0.636653 11.1429H1.29877C1.45157 12.1952 2.38108 13 3.50159 13C4.6221 13 5.55161 12.1952 5.70441 11.1429H8.29559C8.44839 12.1952 9.3779 13 10.4984 13C11.6189 13 12.6121 12.1395 12.714 11.0376C13.4588 10.7838 14 10.0967 14 9.28572V7.15C14 6.81571 13.9045 6.48143 13.7262 6.19667H13.7326ZM3.50159 11.7619C2.97317 11.7619 2.54661 11.3471 2.54661 10.8333C2.54661 10.3195 2.97317 9.90476 3.50159 9.90476C4.03001 9.90476 4.45657 10.3195 4.45657 10.8333C4.45657 11.3471 4.03001 11.7619 3.50159 11.7619ZM10.5048 11.7619C9.97635 11.7619 9.5498 11.3471 9.5498 10.8333C9.5498 10.3195 9.97635 9.90476 10.5048 9.90476C11.0332 9.90476 11.4598 10.3195 11.4598 10.8333C11.4598 11.3471 11.0332 11.7619 10.5048 11.7619ZM12.7331 9.28572C12.7331 9.49619 12.6248 9.6819 12.4593 9.79333C12.1282 9.20524 11.5298 8.78429 10.8231 8.68524C10.7212 8.67286 10.613 8.66048 10.5048 8.66048C10.161 8.66048 9.83629 8.73476 9.5498 8.87095V8.04143C9.5498 7.70095 9.83629 7.42238 10.1864 7.42238H12.0964C12.4466 7.42238 12.7331 7.70095 12.7331 8.04143V9.27952V9.28572Z" fill="black"/>
</svg>
